<?xml version="1.0" encoding="UTF-8" standalone="no"?>
<!DOCTYPE svg PUBLIC "-//W3C//DTD SVG 1.1//EN"
 "http://www.w3.org/Graphics/SVG/1.1/DTD/svg11.dtd">
<!-- Generated by graphviz version 2.40.1 (20161225.0304)
 -->
<!-- Title: dependencies Pages: 1 -->
<svg width="3993pt" height="290pt"
 viewBox="0.00 0.00 3993.00 290.00" xmlns="http://www.w3.org/2000/svg" xmlns:xlink="http://www.w3.org/1999/xlink">
<g id="graph0" class="graph" transform="scale(1 1) rotate(0) translate(4 286)">
<title>dependencies</title>
<polygon fill="#ffffff" stroke="transparent" points="-4,4 -4,-286 3989,-286 3989,4 -4,4"/>
<text text-anchor="start" x="1971.5091" y="-42.4" font-family="sans-serif" font-weight="bold" font-size="14.00" fill="#000000">Legend</text>
<polygon fill="#ffffb3" stroke="transparent" points="1758.5,-10 1758.5,-30 1778.5,-30 1778.5,-10 1758.5,-10"/>
<text text-anchor="start" x="1782.129" y="-15.4" font-family="sans-serif" font-size="14.00" fill="#000000"> &#160;Declarations</text>
<polygon fill="#8dd3c7" stroke="transparent" points="1871.5,-10 1871.5,-30 1891.5,-30 1891.5,-10 1871.5,-10"/>
<text text-anchor="start" x="1895.2251" y="-15.4" font-family="sans-serif" font-size="14.00" fill="#000000"> &#160;Module</text>
<polygon fill="#80b1d3" stroke="transparent" points="1957.5,-10 1957.5,-30 1977.5,-30 1977.5,-10 1957.5,-10"/>
<text text-anchor="start" x="1981.2812" y="-15.4" font-family="sans-serif" font-size="14.00" fill="#000000"> &#160;Bootstrap</text>
<polygon fill="#fdb462" stroke="transparent" points="2054.5,-10 2054.5,-30 2074.5,-30 2074.5,-10 2054.5,-10"/>
<text text-anchor="start" x="2078.1732" y="-15.4" font-family="sans-serif" font-size="14.00" fill="#000000"> &#160;Providers</text>
<polygon fill="#fb8072" stroke="transparent" points="2150.5,-10 2150.5,-30 2170.5,-30 2170.5,-10 2150.5,-10"/>
<text text-anchor="start" x="2174.2258" y="-15.4" font-family="sans-serif" font-size="14.00" fill="#000000"> &#160;Exports</text>
<g id="clust1" class="cluster">
<title>cluster_AppModule</title>
<polygon fill="none" stroke="#000000" stroke-dasharray="1,5" points="8,-70 8,-274 3633,-274 3633,-70 8,-70"/>
</g>
<g id="clust2" class="cluster">
<title>cluster_AppModule_declarations</title>
<polygon fill="none" stroke="#000000" points="628,-78 628,-130 2664,-130 2664,-78 628,-78"/>
</g>
<g id="clust17" class="cluster">
<title>cluster_AppModule_imports</title>
<polygon fill="none" stroke="#000000" points="2672,-78 2672,-130 3625,-130 3625,-78 2672,-78"/>
</g>
<g id="clust19" class="cluster">
<title>cluster_AppModule_bootstrap</title>
<polygon fill="none" stroke="#000000" points="1814,-214 1814,-266 1938,-266 1938,-214 1814,-214"/>
</g>
<g id="clust20" class="cluster">
<title>cluster_AppModule_providers</title>
<polygon fill="none" stroke="#000000" points="16,-78 16,-130 620,-130 620,-78 16,-78"/>
</g>
<g id="clust21" class="cluster">
<title>cluster_AppRoutingModule</title>
<polygon fill="none" stroke="#000000" stroke-dasharray="1,5" points="3641,-138 3641,-206 3977,-206 3977,-138 3641,-138"/>
</g>
<g id="clust23" class="cluster">
<title>cluster_AppRoutingModule_imports</title>
<polygon fill="none" stroke="#000000" points="3775,-146 3775,-198 3969,-198 3969,-146 3775,-146"/>
</g>
<g id="clust24" class="cluster">
<title>cluster_AppRoutingModule_exports</title>
<polygon fill="none" stroke="#000000" points="3649,-146 3649,-198 3767,-198 3767,-146 3649,-146"/>
</g>
<!-- AppComponent -->
<g id="node1" class="node">
<title>AppComponent</title>
<polygon fill="#ffffb3" stroke="#000000" points="2655.9399,-122 2550.0601,-122 2550.0601,-86 2655.9399,-86 2655.9399,-122"/>
<text text-anchor="middle" x="2603" y="-99.8" font-family="Times,serif" font-size="14.00" fill="#000000">AppComponent</text>
</g>
<!-- AppModule -->
<g id="node15" class="node">
<title>AppModule</title>
<polygon fill="#8dd3c7" stroke="#000000" points="1917.6571,-190 1914.6571,-194 1893.6571,-194 1890.6571,-190 1834.3429,-190 1834.3429,-154 1917.6571,-154 1917.6571,-190"/>
<text text-anchor="middle" x="1876" y="-167.8" font-family="Times,serif" font-size="14.00" fill="#000000">AppModule</text>
</g>
<!-- AppComponent&#45;&gt;AppModule -->
<g id="edge1" class="edge">
<title>AppComponent&#45;&gt;AppModule</title>
<path fill="none" stroke="#000000" d="M2603,-122.1686C2603,-141.0898 2603,-168 2603,-168 2603,-168 1927.6978,-168 1927.6978,-168"/>
<polygon fill="#000000" stroke="#000000" points="1927.6979,-164.5001 1917.6978,-168 1927.6978,-171.5001 1927.6979,-164.5001"/>
</g>
<!-- ToolbarComponent -->
<g id="node2" class="node">
<title>ToolbarComponent</title>
<polygon fill="#ffffb3" stroke="#000000" points="2531.6513,-122 2406.3487,-122 2406.3487,-86 2531.6513,-86 2531.6513,-122"/>
<text text-anchor="middle" x="2469" y="-99.8" font-family="Times,serif" font-size="14.00" fill="#000000">ToolbarComponent</text>
</g>
<!-- ToolbarComponent&#45;&gt;AppModule -->
<g id="edge2" class="edge">
<title>ToolbarComponent&#45;&gt;AppModule</title>
<path fill="none" stroke="#000000" d="M2469,-122.2667C2469,-140.5552 2469,-166 2469,-166 2469,-166 1927.6986,-166 1927.6986,-166"/>
<polygon fill="#000000" stroke="#000000" points="1927.6986,-162.5001 1917.6986,-166 1927.6986,-169.5001 1927.6986,-162.5001"/>
</g>
<!-- SearchBarComponent -->
<g id="node3" class="node">
<title>SearchBarComponent</title>
<polygon fill="#ffffb3" stroke="#000000" points="2387.6317,-122 2248.3683,-122 2248.3683,-86 2387.6317,-86 2387.6317,-122"/>
<text text-anchor="middle" x="2318" y="-99.8" font-family="Times,serif" font-size="14.00" fill="#000000">SearchBarComponent</text>
</g>
<!-- SearchBarComponent&#45;&gt;AppModule -->
<g id="edge3" class="edge">
<title>SearchBarComponent&#45;&gt;AppModule</title>
<path fill="none" stroke="#000000" d="M2318,-122.0225C2318,-139.3734 2318,-163 2318,-163 2318,-163 1927.9808,-163 1927.9808,-163"/>
<polygon fill="#000000" stroke="#000000" points="1927.9808,-159.5001 1917.9808,-163 1927.9807,-166.5001 1927.9808,-159.5001"/>
</g>
<!-- HomeComponent -->
<g id="node4" class="node">
<title>HomeComponent</title>
<polygon fill="#ffffb3" stroke="#000000" points="2229.5451,-122 2114.4549,-122 2114.4549,-86 2229.5451,-86 2229.5451,-122"/>
<text text-anchor="middle" x="2172" y="-99.8" font-family="Times,serif" font-size="14.00" fill="#000000">HomeComponent</text>
</g>
<!-- HomeComponent&#45;&gt;AppModule -->
<g id="edge4" class="edge">
<title>HomeComponent&#45;&gt;AppModule</title>
<path fill="none" stroke="#000000" d="M2172,-122.027C2172,-138.3976 2172,-160 2172,-160 2172,-160 1927.7818,-160 1927.7818,-160"/>
<polygon fill="#000000" stroke="#000000" points="1927.7818,-156.5001 1917.7818,-160 1927.7817,-163.5001 1927.7818,-156.5001"/>
</g>
<!-- FavoritesComponent -->
<g id="node5" class="node">
<title>FavoritesComponent</title>
<polygon fill="#ffffb3" stroke="#000000" points="2096.9313,-122 1963.0687,-122 1963.0687,-86 2096.9313,-86 2096.9313,-122"/>
<text text-anchor="middle" x="2030" y="-99.8" font-family="Times,serif" font-size="14.00" fill="#000000">FavoritesComponent</text>
</g>
<!-- FavoritesComponent&#45;&gt;AppModule -->
<g id="edge5" class="edge">
<title>FavoritesComponent&#45;&gt;AppModule</title>
<path fill="none" stroke="#000000" d="M2030,-122.2396C2030,-137.5706 2030,-157 2030,-157 2030,-157 1927.6746,-157 1927.6746,-157"/>
<polygon fill="#000000" stroke="#000000" points="1927.6747,-153.5001 1917.6746,-157 1927.6746,-160.5001 1927.6747,-153.5001"/>
</g>
<!-- NotFoundComponent -->
<g id="node6" class="node">
<title>NotFoundComponent</title>
<polygon fill="#ffffb3" stroke="#000000" points="1945.1122,-122 1806.8878,-122 1806.8878,-86 1945.1122,-86 1945.1122,-122"/>
<text text-anchor="middle" x="1876" y="-99.8" font-family="Times,serif" font-size="14.00" fill="#000000">NotFoundComponent</text>
</g>
<!-- NotFoundComponent&#45;&gt;AppModule -->
<g id="edge6" class="edge">
<title>NotFoundComponent&#45;&gt;AppModule</title>
<path fill="none" stroke="#000000" d="M1876,-122.2228C1876,-122.2228 1876,-143.7269 1876,-143.7269"/>
<polygon fill="#000000" stroke="#000000" points="1872.5001,-143.7269 1876,-153.7269 1879.5001,-143.727 1872.5001,-143.7269"/>
</g>
<!-- MainComponent -->
<g id="node7" class="node">
<title>MainComponent</title>
<polygon fill="#ffffb3" stroke="#000000" points="1789.3823,-122 1678.6177,-122 1678.6177,-86 1789.3823,-86 1789.3823,-122"/>
<text text-anchor="middle" x="1734" y="-99.8" font-family="Times,serif" font-size="14.00" fill="#000000">MainComponent</text>
</g>
<!-- MainComponent&#45;&gt;AppModule -->
<g id="edge7" class="edge">
<title>MainComponent&#45;&gt;AppModule</title>
<path fill="none" stroke="#000000" d="M1734,-122.2396C1734,-137.5706 1734,-157 1734,-157 1734,-157 1824.1633,-157 1824.1633,-157"/>
<polygon fill="#000000" stroke="#000000" points="1824.1634,-160.5001 1834.1633,-157 1824.1633,-153.5001 1824.1634,-160.5001"/>
</g>
<!-- LoginComponent -->
<g id="node8" class="node">
<title>LoginComponent</title>
<polygon fill="#ffffb3" stroke="#000000" points="1660.2758,-122 1545.7242,-122 1545.7242,-86 1660.2758,-86 1660.2758,-122"/>
<text text-anchor="middle" x="1603" y="-99.8" font-family="Times,serif" font-size="14.00" fill="#000000">LoginComponent</text>
</g>
<!-- LoginComponent&#45;&gt;AppModule -->
<g id="edge8" class="edge">
<title>LoginComponent&#45;&gt;AppModule</title>
<path fill="none" stroke="#000000" d="M1603,-122.027C1603,-138.3976 1603,-160 1603,-160 1603,-160 1824.24,-160 1824.24,-160"/>
<polygon fill="#000000" stroke="#000000" points="1824.24,-163.5001 1834.24,-160 1824.24,-156.5001 1824.24,-163.5001"/>
</g>
<!-- ConnectComponent -->
<g id="node9" class="node">
<title>ConnectComponent</title>
<polygon fill="#ffffb3" stroke="#000000" points="1527.9888,-122 1400.0112,-122 1400.0112,-86 1527.9888,-86 1527.9888,-122"/>
<text text-anchor="middle" x="1464" y="-99.8" font-family="Times,serif" font-size="14.00" fill="#000000">ConnectComponent</text>
</g>
<!-- ConnectComponent&#45;&gt;AppModule -->
<g id="edge9" class="edge">
<title>ConnectComponent&#45;&gt;AppModule</title>
<path fill="none" stroke="#000000" d="M1464,-122.0225C1464,-139.3734 1464,-163 1464,-163 1464,-163 1824.2279,-163 1824.2279,-163"/>
<polygon fill="#000000" stroke="#000000" points="1824.228,-166.5001 1834.2279,-163 1824.2279,-159.5001 1824.228,-166.5001"/>
</g>
<!-- RegisterComponent -->
<g id="node10" class="node">
<title>RegisterComponent</title>
<polygon fill="#ffffb3" stroke="#000000" points="1381.9846,-122 1254.0154,-122 1254.0154,-86 1381.9846,-86 1381.9846,-122"/>
<text text-anchor="middle" x="1318" y="-99.8" font-family="Times,serif" font-size="14.00" fill="#000000">RegisterComponent</text>
</g>
<!-- RegisterComponent&#45;&gt;AppModule -->
<g id="edge10" class="edge">
<title>RegisterComponent&#45;&gt;AppModule</title>
<path fill="none" stroke="#000000" d="M1318,-122.2667C1318,-140.5552 1318,-166 1318,-166 1318,-166 1824.0593,-166 1824.0593,-166"/>
<polygon fill="#000000" stroke="#000000" points="1824.0593,-169.5001 1834.0593,-166 1824.0593,-162.5001 1824.0593,-169.5001"/>
</g>
<!-- HeroDetailsComponent -->
<g id="node11" class="node">
<title>HeroDetailsComponent</title>
<polygon fill="#ffffb3" stroke="#000000" points="1236.4664,-122 1087.5336,-122 1087.5336,-86 1236.4664,-86 1236.4664,-122"/>
<text text-anchor="middle" x="1162" y="-99.8" font-family="Times,serif" font-size="14.00" fill="#000000">HeroDetailsComponent</text>
</g>
<!-- HeroDetailsComponent&#45;&gt;AppModule -->
<g id="edge11" class="edge">
<title>HeroDetailsComponent&#45;&gt;AppModule</title>
<path fill="none" stroke="#000000" d="M1162,-122.1686C1162,-141.0898 1162,-168 1162,-168 1162,-168 1824.2643,-168 1824.2643,-168"/>
<polygon fill="#000000" stroke="#000000" points="1824.2643,-171.5001 1834.2643,-168 1824.2642,-164.5001 1824.2643,-171.5001"/>
</g>
<!-- HeroCardsComponent -->
<g id="node12" class="node">
<title>HeroCardsComponent</title>
<polygon fill="#ffffb3" stroke="#000000" points="1069.9706,-122 928.0294,-122 928.0294,-86 1069.9706,-86 1069.9706,-122"/>
<text text-anchor="middle" x="999" y="-99.8" font-family="Times,serif" font-size="14.00" fill="#000000">HeroCardsComponent</text>
</g>
<!-- HeroCardsComponent&#45;&gt;AppModule -->
<g id="edge12" class="edge">
<title>HeroCardsComponent&#45;&gt;AppModule</title>
<path fill="none" stroke="#000000" d="M999,-122.308C999,-142.1455 999,-171 999,-171 999,-171 1824.2905,-171 1824.2905,-171"/>
<polygon fill="#000000" stroke="#000000" points="1824.2905,-174.5001 1834.2905,-171 1824.2904,-167.5001 1824.2905,-174.5001"/>
</g>
<!-- SearchNotFoundDialog -->
<g id="node13" class="node">
<title>SearchNotFoundDialog</title>
<polygon fill="#ffffb3" stroke="#000000" points="910.4692,-122 761.5308,-122 761.5308,-86 910.4692,-86 910.4692,-122"/>
<text text-anchor="middle" x="836" y="-99.8" font-family="Times,serif" font-size="14.00" fill="#000000">SearchNotFoundDialog</text>
</g>
<!-- SearchNotFoundDialog&#45;&gt;AppModule -->
<g id="edge13" class="edge">
<title>SearchNotFoundDialog&#45;&gt;AppModule</title>
<path fill="none" stroke="#000000" d="M836,-122.0267C836,-142.7672 836,-174 836,-174 836,-174 1824.2664,-174 1824.2664,-174"/>
<polygon fill="#000000" stroke="#000000" points="1824.2664,-177.5001 1834.2664,-174 1824.2664,-170.5001 1824.2664,-177.5001"/>
</g>
<!-- ChatComponent -->
<g id="node14" class="node">
<title>ChatComponent</title>
<polygon fill="#ffffb3" stroke="#000000" points="743.7744,-122 636.2256,-122 636.2256,-86 743.7744,-86 743.7744,-122"/>
<text text-anchor="middle" x="690" y="-99.8" font-family="Times,serif" font-size="14.00" fill="#000000">ChatComponent</text>
</g>
<!-- ChatComponent&#45;&gt;AppModule -->
<g id="edge14" class="edge">
<title>ChatComponent&#45;&gt;AppModule</title>
<path fill="none" stroke="#000000" d="M690,-122.0449C690,-143.6623 690,-177 690,-177 690,-177 1824.138,-177 1824.138,-177"/>
<polygon fill="#000000" stroke="#000000" points="1824.138,-180.5001 1834.138,-177 1824.138,-173.5001 1824.138,-180.5001"/>
</g>
<!-- AppComponent  -->
<g id="node23" class="node">
<title>AppComponent </title>
<polygon fill="#80b1d3" stroke="#000000" points="1930.439,-258 1821.561,-258 1821.561,-222 1930.439,-222 1930.439,-258"/>
<text text-anchor="middle" x="1876" y="-235.8" font-family="Times,serif" font-size="14.00" fill="#000000">AppComponent </text>
</g>
<!-- AppModule&#45;&gt;AppComponent  -->
<g id="edge22" class="edge">
<title>AppModule&#45;&gt;AppComponent </title>
<path fill="none" stroke="#000000" stroke-dasharray="1,5" d="M1876,-190.2228C1876,-190.2228 1876,-211.7269 1876,-211.7269"/>
<polygon fill="#000000" stroke="#000000" points="1872.5001,-211.7269 1876,-221.7269 1879.5001,-211.727 1872.5001,-211.7269"/>
</g>
<!-- BrowserModule -->
<g id="node16" class="node">
<title>BrowserModule</title>
<polygon fill="#8dd3c7" stroke="#000000" points="3470.4734,-122 3467.4734,-126 3446.4734,-126 3443.4734,-122 3363.5266,-122 3363.5266,-86 3470.4734,-86 3470.4734,-122"/>
<text text-anchor="middle" x="3417" y="-99.8" font-family="Times,serif" font-size="14.00" fill="#000000">BrowserModule</text>
</g>
<!-- BrowserModule&#45;&gt;AppModule -->
<g id="edge15" class="edge">
<title>BrowserModule&#45;&gt;AppModule</title>
<path fill="none" stroke="#000000" d="M3417,-122.3802C3417,-146.2785 3417,-185 3417,-185 3417,-185 1928.0172,-185 1928.0172,-185"/>
<polygon fill="#000000" stroke="#000000" points="1928.0173,-181.5001 1918.0172,-185 1928.0172,-188.5001 1928.0173,-181.5001"/>
</g>
<!-- FormsModule -->
<g id="node17" class="node">
<title>FormsModule</title>
<polygon fill="#8dd3c7" stroke="#000000" points="3345.8288,-122 3342.8288,-126 3321.8288,-126 3318.8288,-122 3250.1712,-122 3250.1712,-86 3345.8288,-86 3345.8288,-122"/>
<text text-anchor="middle" x="3298" y="-99.8" font-family="Times,serif" font-size="14.00" fill="#000000">FormsModule</text>
</g>
<!-- FormsModule&#45;&gt;AppModule -->
<g id="edge16" class="edge">
<title>FormsModule&#45;&gt;AppModule</title>
<path fill="none" stroke="#000000" d="M3298,-122.0908C3298,-145.1328 3298,-182 3298,-182 3298,-182 1927.7877,-182 1927.7877,-182"/>
<polygon fill="#000000" stroke="#000000" points="1927.7877,-178.5001 1917.7877,-182 1927.7876,-185.5001 1927.7877,-178.5001"/>
</g>
<!-- HttpModule -->
<g id="node18" class="node">
<title>HttpModule</title>
<polygon fill="#8dd3c7" stroke="#000000" points="3232.4387,-122 3229.4387,-126 3208.4387,-126 3205.4387,-122 3147.5613,-122 3147.5613,-86 3232.4387,-86 3232.4387,-122"/>
<text text-anchor="middle" x="3190" y="-99.8" font-family="Times,serif" font-size="14.00" fill="#000000">HttpModule</text>
</g>
<!-- HttpModule&#45;&gt;AppModule -->
<g id="edge17" class="edge">
<title>HttpModule&#45;&gt;AppModule</title>
<path fill="none" stroke="#000000" d="M3190,-122.1554C3190,-144.3519 3190,-179 3190,-179 3190,-179 1927.8625,-179 1927.8625,-179"/>
<polygon fill="#000000" stroke="#000000" points="1927.8626,-175.5001 1917.8625,-179 1927.8625,-182.5001 1927.8626,-175.5001"/>
</g>
<!-- MaterialModule -->
<g id="node19" class="node">
<title>MaterialModule</title>
<polygon fill="#8dd3c7" stroke="#000000" points="3129.4706,-122 3126.4706,-126 3105.4706,-126 3102.4706,-122 3022.5294,-122 3022.5294,-86 3129.4706,-86 3129.4706,-122"/>
<text text-anchor="middle" x="3076" y="-99.8" font-family="Times,serif" font-size="14.00" fill="#000000">MaterialModule</text>
</g>
<!-- MaterialModule&#45;&gt;AppModule -->
<g id="edge18" class="edge">
<title>MaterialModule&#45;&gt;AppModule</title>
<path fill="none" stroke="#000000" d="M3076,-122.0449C3076,-143.6623 3076,-177 3076,-177 3076,-177 1928.005,-177 1928.005,-177"/>
<polygon fill="#000000" stroke="#000000" points="1928.005,-173.5001 1918.005,-177 1928.005,-180.5001 1928.005,-173.5001"/>
</g>
<!-- BrowserAnimationsModule -->
<g id="node20" class="node">
<title>BrowserAnimationsModule</title>
<polygon fill="#8dd3c7" stroke="#000000" points="3004.3019,-122 3001.3019,-126 2980.3019,-126 2977.3019,-122 2831.6981,-122 2831.6981,-86 3004.3019,-86 3004.3019,-122"/>
<text text-anchor="middle" x="2918" y="-99.8" font-family="Times,serif" font-size="14.00" fill="#000000">BrowserAnimationsModule</text>
</g>
<!-- BrowserAnimationsModule&#45;&gt;AppModule -->
<g id="edge19" class="edge">
<title>BrowserAnimationsModule&#45;&gt;AppModule</title>
<path fill="none" stroke="#000000" d="M2918,-122.0267C2918,-142.7672 2918,-174 2918,-174 2918,-174 1927.8139,-174 1927.8139,-174"/>
<polygon fill="#000000" stroke="#000000" points="1927.8139,-170.5001 1917.8139,-174 1927.8138,-177.5001 1927.8139,-170.5001"/>
</g>
<!-- AppRoutingModule -->
<g id="node21" class="node">
<title>AppRoutingModule</title>
<polygon fill="#8dd3c7" stroke="#000000" points="3617.2744,-122 3614.2744,-126 3593.2744,-126 3590.2744,-122 3488.7256,-122 3488.7256,-86 3617.2744,-86 3617.2744,-122"/>
<text text-anchor="middle" x="3553" y="-99.8" font-family="Times,serif" font-size="14.00" fill="#000000">AppRoutingModule</text>
</g>
<!-- AppRoutingModule&#45;&gt;AppModule -->
<g id="edge20" class="edge">
<title>AppRoutingModule&#45;&gt;AppModule</title>
<path fill="none" stroke="#000000" d="M3553,-122.2267C3553,-146.9318 3553,-188 3553,-188 3553,-188 1927.8726,-188 1927.8726,-188"/>
<polygon fill="#000000" stroke="#000000" points="1927.8726,-184.5001 1917.8726,-188 1927.8725,-191.5001 1927.8726,-184.5001"/>
</g>
<!-- RouterModule  -->
<g id="node29" class="node">
<title>RouterModule </title>
<polygon fill="#fb8072" stroke="#000000" points="3758.6523,-190 3657.3477,-190 3657.3477,-154 3758.6523,-154 3758.6523,-190"/>
<text text-anchor="middle" x="3708" y="-167.8" font-family="Times,serif" font-size="14.00" fill="#000000">RouterModule </text>
</g>
<!-- AppRoutingModule&#45;&gt;RouterModule  -->
<g id="edge28" class="edge">
<title>AppRoutingModule&#45;&gt;RouterModule </title>
<path fill="none" stroke="#000000" stroke-dasharray="5,2" d="M3617.3874,-110C3659.9734,-110 3708,-110 3708,-110 3708,-110 3708,-143.7333 3708,-143.7333"/>
<polygon fill="#000000" stroke="#000000" points="3704.5001,-143.7333 3708,-153.7333 3711.5001,-143.7333 3704.5001,-143.7333"/>
</g>
<!-- InfiniteScrollModule -->
<g id="node22" class="node">
<title>InfiniteScrollModule</title>
<polygon fill="#8dd3c7" stroke="#000000" points="2814.1965,-122 2811.1965,-126 2790.1965,-126 2787.1965,-122 2679.8035,-122 2679.8035,-86 2814.1965,-86 2814.1965,-122"/>
<text text-anchor="middle" x="2747" y="-99.8" font-family="Times,serif" font-size="14.00" fill="#000000">InfiniteScrollModule</text>
</g>
<!-- InfiniteScrollModule&#45;&gt;AppModule -->
<g id="edge21" class="edge">
<title>InfiniteScrollModule&#45;&gt;AppModule</title>
<path fill="none" stroke="#000000" d="M2747,-122.308C2747,-142.1455 2747,-171 2747,-171 2747,-171 1927.7167,-171 1927.7167,-171"/>
<polygon fill="#000000" stroke="#000000" points="1927.7167,-167.5001 1917.7167,-171 1927.7167,-174.5001 1927.7167,-167.5001"/>
</g>
<!-- AuthGuard -->
<g id="node24" class="node">
<title>AuthGuard</title>
<ellipse fill="#fdb462" stroke="#000000" cx="558" cy="-104" rx="54.4566" ry="18"/>
<text text-anchor="middle" x="558" y="-99.8" font-family="Times,serif" font-size="14.00" fill="#000000">AuthGuard</text>
</g>
<!-- AuthGuard&#45;&gt;AppModule -->
<g id="edge23" class="edge">
<title>AuthGuard&#45;&gt;AppModule</title>
<path fill="none" stroke="#000000" d="M558,-122.1554C558,-144.3519 558,-179 558,-179 558,-179 1824.01,-179 1824.01,-179"/>
<polygon fill="#000000" stroke="#000000" points="1824.0101,-182.5001 1834.01,-179 1824.01,-175.5001 1824.0101,-182.5001"/>
</g>
<!-- AuthenticationService -->
<g id="node25" class="node">
<title>AuthenticationService</title>
<ellipse fill="#fdb462" stroke="#000000" cx="388" cy="-104" rx="97.2683" ry="18"/>
<text text-anchor="middle" x="388" y="-99.8" font-family="Times,serif" font-size="14.00" fill="#000000">AuthenticationService</text>
</g>
<!-- AuthenticationService&#45;&gt;AppModule -->
<g id="edge24" class="edge">
<title>AuthenticationService&#45;&gt;AppModule</title>
<path fill="none" stroke="#000000" d="M388,-122.0908C388,-145.1328 388,-182 388,-182 388,-182 1824.2575,-182 1824.2575,-182"/>
<polygon fill="#000000" stroke="#000000" points="1824.2575,-185.5001 1834.2575,-182 1824.2575,-178.5001 1824.2575,-185.5001"/>
</g>
<!-- RestService -->
<g id="node26" class="node">
<title>RestService</title>
<ellipse fill="#fdb462" stroke="#000000" cx="215" cy="-104" rx="57.3166" ry="18"/>
<text text-anchor="middle" x="215" y="-99.8" font-family="Times,serif" font-size="14.00" fill="#000000">RestService</text>
</g>
<!-- RestService&#45;&gt;AppModule -->
<g id="edge25" class="edge">
<title>RestService&#45;&gt;AppModule</title>
<path fill="none" stroke="#000000" d="M215,-122.3802C215,-146.2785 215,-185 215,-185 215,-185 1824.1106,-185 1824.1106,-185"/>
<polygon fill="#000000" stroke="#000000" points="1824.1106,-188.5001 1834.1106,-185 1824.1106,-181.5001 1824.1106,-188.5001"/>
</g>
<!-- UserService -->
<g id="node27" class="node">
<title>UserService</title>
<ellipse fill="#fdb462" stroke="#000000" cx="82" cy="-104" rx="58.4415" ry="18"/>
<text text-anchor="middle" x="82" y="-99.8" font-family="Times,serif" font-size="14.00" fill="#000000">UserService</text>
</g>
<!-- UserService&#45;&gt;AppModule -->
<g id="edge26" class="edge">
<title>UserService&#45;&gt;AppModule</title>
<path fill="none" stroke="#000000" d="M82,-122.2267C82,-146.9318 82,-188 82,-188 82,-188 1824.2953,-188 1824.2953,-188"/>
<polygon fill="#000000" stroke="#000000" points="1824.2954,-191.5001 1834.2953,-188 1824.2953,-184.5001 1824.2954,-191.5001"/>
</g>
<!-- RouterModule.forRoot(args) -->
<g id="node28" class="node">
<title>RouterModule.forRoot(args)</title>
<polygon fill="#8dd3c7" stroke="#000000" points="3960.8419,-190 3957.8419,-194 3936.8419,-194 3933.8419,-190 3783.1581,-190 3783.1581,-154 3960.8419,-154 3960.8419,-190"/>
<text text-anchor="middle" x="3872" y="-167.8" font-family="Times,serif" font-size="14.00" fill="#000000">RouterModule.forRoot(args)</text>
</g>
<!-- RouterModule.forRoot(args)&#45;&gt;AppRoutingModule -->
<g id="edge27" class="edge">
<title>RouterModule.forRoot(args)&#45;&gt;AppRoutingModule</title>
<path fill="none" stroke="#000000" d="M3872,-153.7079C3872,-131.7943 3872,-98 3872,-98 3872,-98 3627.5544,-98 3627.5544,-98"/>
<polygon fill="#000000" stroke="#000000" points="3627.5544,-94.5001 3617.5544,-98 3627.5544,-101.5001 3627.5544,-94.5001"/>
</g>
</g>
</svg>
