<?xml version="1.0" encoding="UTF-8" standalone="no"?>
<!DOCTYPE svg PUBLIC "-//W3C//DTD SVG 1.1//EN"
 "http://www.w3.org/Graphics/SVG/1.1/DTD/svg11.dtd">
<!-- Generated by graphviz version 2.40.1 (20161225.0304)
 -->
<!-- Title: dependencies Pages: 1 -->
<svg width="3649pt" height="284pt"
 viewBox="0.00 0.00 3649.00 284.00" xmlns="http://www.w3.org/2000/svg" xmlns:xlink="http://www.w3.org/1999/xlink">
<g id="graph0" class="graph" transform="scale(1 1) rotate(0) translate(4 280)">
<title>dependencies</title>
<polygon fill="#ffffff" stroke="transparent" points="-4,4 -4,-280 3645,-280 3645,4 -4,4"/>
<text text-anchor="start" x="1799.5091" y="-42.4" font-family="sans-serif" font-weight="bold" font-size="14.00" fill="#000000">Legend</text>
<polygon fill="#ffffb3" stroke="transparent" points="1586.5,-10 1586.5,-30 1606.5,-30 1606.5,-10 1586.5,-10"/>
<text text-anchor="start" x="1610.129" y="-15.4" font-family="sans-serif" font-size="14.00" fill="#000000"> &#160;Declarations</text>
<polygon fill="#8dd3c7" stroke="transparent" points="1699.5,-10 1699.5,-30 1719.5,-30 1719.5,-10 1699.5,-10"/>
<text text-anchor="start" x="1723.2251" y="-15.4" font-family="sans-serif" font-size="14.00" fill="#000000"> &#160;Module</text>
<polygon fill="#80b1d3" stroke="transparent" points="1785.5,-10 1785.5,-30 1805.5,-30 1805.5,-10 1785.5,-10"/>
<text text-anchor="start" x="1809.2812" y="-15.4" font-family="sans-serif" font-size="14.00" fill="#000000"> &#160;Bootstrap</text>
<polygon fill="#fdb462" stroke="transparent" points="1882.5,-10 1882.5,-30 1902.5,-30 1902.5,-10 1882.5,-10"/>
<text text-anchor="start" x="1906.1732" y="-15.4" font-family="sans-serif" font-size="14.00" fill="#000000"> &#160;Providers</text>
<polygon fill="#fb8072" stroke="transparent" points="1978.5,-10 1978.5,-30 1998.5,-30 1998.5,-10 1978.5,-10"/>
<text text-anchor="start" x="2002.2258" y="-15.4" font-family="sans-serif" font-size="14.00" fill="#000000"> &#160;Exports</text>
<g id="clust1" class="cluster">
<title>cluster_AppModule</title>
<polygon fill="none" stroke="#000000" stroke-dasharray="1,5" points="8,-70 8,-268 3633,-268 3633,-70 8,-70"/>
</g>
<g id="clust2" class="cluster">
<title>cluster_AppModule_declarations</title>
<polygon fill="none" stroke="#000000" points="1589,-78 1589,-130 3625,-130 3625,-78 1589,-78"/>
</g>
<g id="clust17" class="cluster">
<title>cluster_AppModule_imports</title>
<polygon fill="none" stroke="#000000" points="628,-78 628,-130 1581,-130 1581,-78 628,-78"/>
</g>
<g id="clust19" class="cluster">
<title>cluster_AppModule_bootstrap</title>
<polygon fill="none" stroke="#000000" points="1735,-208 1735,-260 1859,-260 1859,-208 1735,-208"/>
</g>
<g id="clust20" class="cluster">
<title>cluster_AppModule_providers</title>
<polygon fill="none" stroke="#000000" points="16,-78 16,-130 620,-130 620,-78 16,-78"/>
</g>
<!-- AppComponent -->
<g id="node1" class="node">
<title>AppComponent</title>
<polygon fill="#ffffb3" stroke="#000000" points="3616.9399,-122 3511.0601,-122 3511.0601,-86 3616.9399,-86 3616.9399,-122"/>
<text text-anchor="middle" x="3564" y="-99.8" font-family="Times,serif" font-size="14.00" fill="#000000">AppComponent</text>
</g>
<!-- AppModule -->
<g id="node15" class="node">
<title>AppModule</title>
<polygon fill="#8dd3c7" stroke="#000000" points="1838.6571,-187 1835.6571,-191 1814.6571,-191 1811.6571,-187 1755.3429,-187 1755.3429,-151 1838.6571,-151 1838.6571,-187"/>
<text text-anchor="middle" x="1797" y="-164.8" font-family="Times,serif" font-size="14.00" fill="#000000">AppModule</text>
</g>
<!-- AppComponent&#45;&gt;AppModule -->
<g id="edge1" class="edge">
<title>AppComponent&#45;&gt;AppModule</title>
<path fill="none" stroke="#000000" d="M3564,-122.3802C3564,-146.2785 3564,-185 3564,-185 3564,-185 1848.9361,-185 1848.9361,-185"/>
<polygon fill="#000000" stroke="#000000" points="1848.9361,-181.5001 1838.9361,-185 1848.936,-188.5001 1848.9361,-181.5001"/>
</g>
<!-- ToolbarComponent -->
<g id="node2" class="node">
<title>ToolbarComponent</title>
<polygon fill="#ffffb3" stroke="#000000" points="3492.6513,-122 3367.3487,-122 3367.3487,-86 3492.6513,-86 3492.6513,-122"/>
<text text-anchor="middle" x="3430" y="-99.8" font-family="Times,serif" font-size="14.00" fill="#000000">ToolbarComponent</text>
</g>
<!-- ToolbarComponent&#45;&gt;AppModule -->
<g id="edge2" class="edge">
<title>ToolbarComponent&#45;&gt;AppModule</title>
<path fill="none" stroke="#000000" d="M3430,-122.0908C3430,-145.1328 3430,-182 3430,-182 3430,-182 1849.0075,-182 1849.0075,-182"/>
<polygon fill="#000000" stroke="#000000" points="1849.0076,-178.5001 1839.0075,-182 1849.0075,-185.5001 1849.0076,-178.5001"/>
</g>
<!-- SearchBarComponent -->
<g id="node3" class="node">
<title>SearchBarComponent</title>
<polygon fill="#ffffb3" stroke="#000000" points="3348.6317,-122 3209.3683,-122 3209.3683,-86 3348.6317,-86 3348.6317,-122"/>
<text text-anchor="middle" x="3279" y="-99.8" font-family="Times,serif" font-size="14.00" fill="#000000">SearchBarComponent</text>
</g>
<!-- SearchBarComponent&#45;&gt;AppModule -->
<g id="edge3" class="edge">
<title>SearchBarComponent&#45;&gt;AppModule</title>
<path fill="none" stroke="#000000" d="M3279,-122.1554C3279,-144.3519 3279,-179 3279,-179 3279,-179 1848.9661,-179 1848.9661,-179"/>
<polygon fill="#000000" stroke="#000000" points="1848.9662,-175.5001 1838.9661,-179 1848.9661,-182.5001 1848.9662,-175.5001"/>
</g>
<!-- HomeComponent -->
<g id="node4" class="node">
<title>HomeComponent</title>
<polygon fill="#ffffb3" stroke="#000000" points="3190.5451,-122 3075.4549,-122 3075.4549,-86 3190.5451,-86 3190.5451,-122"/>
<text text-anchor="middle" x="3133" y="-99.8" font-family="Times,serif" font-size="14.00" fill="#000000">HomeComponent</text>
</g>
<!-- HomeComponent&#45;&gt;AppModule -->
<g id="edge4" class="edge">
<title>HomeComponent&#45;&gt;AppModule</title>
<path fill="none" stroke="#000000" d="M3133,-122.1686C3133,-143.498 3133,-176 3133,-176 3133,-176 1848.8189,-176 1848.8189,-176"/>
<polygon fill="#000000" stroke="#000000" points="1848.8189,-172.5001 1838.8189,-176 1848.8188,-179.5001 1848.8189,-172.5001"/>
</g>
<!-- FavoritesComponent -->
<g id="node5" class="node">
<title>FavoritesComponent</title>
<polygon fill="#ffffb3" stroke="#000000" points="3057.9313,-122 2924.0687,-122 2924.0687,-86 3057.9313,-86 3057.9313,-122"/>
<text text-anchor="middle" x="2991" y="-99.8" font-family="Times,serif" font-size="14.00" fill="#000000">FavoritesComponent</text>
</g>
<!-- FavoritesComponent&#45;&gt;AppModule -->
<g id="edge5" class="edge">
<title>FavoritesComponent&#45;&gt;AppModule</title>
<path fill="none" stroke="#000000" d="M2991,-122.0267C2991,-142.7672 2991,-174 2991,-174 2991,-174 1848.795,-174 1848.795,-174"/>
<polygon fill="#000000" stroke="#000000" points="1848.795,-170.5001 1838.795,-174 1848.795,-177.5001 1848.795,-170.5001"/>
</g>
<!-- NotFoundComponent -->
<g id="node6" class="node">
<title>NotFoundComponent</title>
<polygon fill="#ffffb3" stroke="#000000" points="2906.1122,-122 2767.8878,-122 2767.8878,-86 2906.1122,-86 2906.1122,-122"/>
<text text-anchor="middle" x="2837" y="-99.8" font-family="Times,serif" font-size="14.00" fill="#000000">NotFoundComponent</text>
</g>
<!-- NotFoundComponent&#45;&gt;AppModule -->
<g id="edge6" class="edge">
<title>NotFoundComponent&#45;&gt;AppModule</title>
<path fill="none" stroke="#000000" d="M2837,-122.308C2837,-142.1455 2837,-171 2837,-171 2837,-171 1848.7336,-171 1848.7336,-171"/>
<polygon fill="#000000" stroke="#000000" points="1848.7336,-167.5001 1838.7336,-171 1848.7336,-174.5001 1848.7336,-167.5001"/>
</g>
<!-- MainComponent -->
<g id="node7" class="node">
<title>MainComponent</title>
<polygon fill="#ffffb3" stroke="#000000" points="2750.3823,-122 2639.6177,-122 2639.6177,-86 2750.3823,-86 2750.3823,-122"/>
<text text-anchor="middle" x="2695" y="-99.8" font-family="Times,serif" font-size="14.00" fill="#000000">MainComponent</text>
</g>
<!-- MainComponent&#45;&gt;AppModule -->
<g id="edge7" class="edge">
<title>MainComponent&#45;&gt;AppModule</title>
<path fill="none" stroke="#000000" d="M2695,-122.1686C2695,-141.0898 2695,-168 2695,-168 2695,-168 1848.8092,-168 1848.8092,-168"/>
<polygon fill="#000000" stroke="#000000" points="1848.8092,-164.5001 1838.8092,-168 1848.8092,-171.5001 1848.8092,-164.5001"/>
</g>
<!-- LoginComponent -->
<g id="node8" class="node">
<title>LoginComponent</title>
<polygon fill="#ffffb3" stroke="#000000" points="2621.2758,-122 2506.7242,-122 2506.7242,-86 2621.2758,-86 2621.2758,-122"/>
<text text-anchor="middle" x="2564" y="-99.8" font-family="Times,serif" font-size="14.00" fill="#000000">LoginComponent</text>
</g>
<!-- LoginComponent&#45;&gt;AppModule -->
<g id="edge8" class="edge">
<title>LoginComponent&#45;&gt;AppModule</title>
<path fill="none" stroke="#000000" d="M2564,-122.302C2564,-140.2699 2564,-165 2564,-165 2564,-165 1848.7819,-165 1848.7819,-165"/>
<polygon fill="#000000" stroke="#000000" points="1848.782,-161.5001 1838.7819,-165 1848.7819,-168.5001 1848.782,-161.5001"/>
</g>
<!-- ConnectComponent -->
<g id="node9" class="node">
<title>ConnectComponent</title>
<polygon fill="#ffffb3" stroke="#000000" points="2488.9888,-122 2361.0112,-122 2361.0112,-86 2488.9888,-86 2488.9888,-122"/>
<text text-anchor="middle" x="2425" y="-99.8" font-family="Times,serif" font-size="14.00" fill="#000000">ConnectComponent</text>
</g>
<!-- ConnectComponent&#45;&gt;AppModule -->
<g id="edge9" class="edge">
<title>ConnectComponent&#45;&gt;AppModule</title>
<path fill="none" stroke="#000000" d="M2425,-122.0225C2425,-139.3734 2425,-163 2425,-163 2425,-163 1848.6912,-163 1848.6912,-163"/>
<polygon fill="#000000" stroke="#000000" points="1848.6912,-159.5001 1838.6912,-163 1848.6911,-166.5001 1848.6912,-159.5001"/>
</g>
<!-- RegisterComponent -->
<g id="node10" class="node">
<title>RegisterComponent</title>
<polygon fill="#ffffb3" stroke="#000000" points="2342.9846,-122 2215.0154,-122 2215.0154,-86 2342.9846,-86 2342.9846,-122"/>
<text text-anchor="middle" x="2279" y="-99.8" font-family="Times,serif" font-size="14.00" fill="#000000">RegisterComponent</text>
</g>
<!-- RegisterComponent&#45;&gt;AppModule -->
<g id="edge10" class="edge">
<title>RegisterComponent&#45;&gt;AppModule</title>
<path fill="none" stroke="#000000" d="M2279,-122.027C2279,-138.3976 2279,-160 2279,-160 2279,-160 1848.9312,-160 1848.9312,-160"/>
<polygon fill="#000000" stroke="#000000" points="1848.9312,-156.5001 1838.9312,-160 1848.9311,-163.5001 1848.9312,-156.5001"/>
</g>
<!-- HeroDetailsComponent -->
<g id="node11" class="node">
<title>HeroDetailsComponent</title>
<polygon fill="#ffffb3" stroke="#000000" points="2197.4664,-122 2048.5336,-122 2048.5336,-86 2197.4664,-86 2197.4664,-122"/>
<text text-anchor="middle" x="2123" y="-99.8" font-family="Times,serif" font-size="14.00" fill="#000000">HeroDetailsComponent</text>
</g>
<!-- HeroDetailsComponent&#45;&gt;AppModule -->
<g id="edge11" class="edge">
<title>HeroDetailsComponent&#45;&gt;AppModule</title>
<path fill="none" stroke="#000000" d="M2123,-122.2396C2123,-137.5706 2123,-157 2123,-157 2123,-157 1848.9514,-157 1848.9514,-157"/>
<polygon fill="#000000" stroke="#000000" points="1848.9514,-153.5001 1838.9514,-157 1848.9514,-160.5001 1848.9514,-153.5001"/>
</g>
<!-- HeroCardsComponent -->
<g id="node12" class="node">
<title>HeroCardsComponent</title>
<polygon fill="#ffffb3" stroke="#000000" points="2030.9706,-122 1889.0294,-122 1889.0294,-86 2030.9706,-86 2030.9706,-122"/>
<text text-anchor="middle" x="1960" y="-99.8" font-family="Times,serif" font-size="14.00" fill="#000000">HeroCardsComponent</text>
</g>
<!-- HeroCardsComponent&#45;&gt;AppModule -->
<g id="edge12" class="edge">
<title>HeroCardsComponent&#45;&gt;AppModule</title>
<path fill="none" stroke="#000000" d="M1960,-122.0511C1960,-136.373 1960,-154 1960,-154 1960,-154 1848.9766,-154 1848.9766,-154"/>
<polygon fill="#000000" stroke="#000000" points="1848.9766,-150.5001 1838.9766,-154 1848.9765,-157.5001 1848.9766,-150.5001"/>
</g>
<!-- SearchNotFoundDialog -->
<g id="node13" class="node">
<title>SearchNotFoundDialog</title>
<polygon fill="#ffffb3" stroke="#000000" points="1871.4692,-122 1722.5308,-122 1722.5308,-86 1871.4692,-86 1871.4692,-122"/>
<text text-anchor="middle" x="1797" y="-99.8" font-family="Times,serif" font-size="14.00" fill="#000000">SearchNotFoundDialog</text>
</g>
<!-- SearchNotFoundDialog&#45;&gt;AppModule -->
<g id="edge13" class="edge">
<title>SearchNotFoundDialog&#45;&gt;AppModule</title>
<path fill="none" stroke="#000000" d="M1797,-122.1061C1797,-122.1061 1797,-140.991 1797,-140.991"/>
<polygon fill="#000000" stroke="#000000" points="1793.5001,-140.9909 1797,-150.991 1800.5001,-140.991 1793.5001,-140.9909"/>
</g>
<!-- ChatComponent -->
<g id="node14" class="node">
<title>ChatComponent</title>
<polygon fill="#ffffb3" stroke="#000000" points="1704.7744,-122 1597.2256,-122 1597.2256,-86 1704.7744,-86 1704.7744,-122"/>
<text text-anchor="middle" x="1651" y="-99.8" font-family="Times,serif" font-size="14.00" fill="#000000">ChatComponent</text>
</g>
<!-- ChatComponent&#45;&gt;AppModule -->
<g id="edge14" class="edge">
<title>ChatComponent&#45;&gt;AppModule</title>
<path fill="none" stroke="#000000" d="M1651,-122.0511C1651,-136.373 1651,-154 1651,-154 1651,-154 1745.1623,-154 1745.1623,-154"/>
<polygon fill="#000000" stroke="#000000" points="1745.1623,-157.5001 1755.1623,-154 1745.1622,-150.5001 1745.1623,-157.5001"/>
</g>
<!-- AppComponent  -->
<g id="node23" class="node">
<title>AppComponent </title>
<polygon fill="#80b1d3" stroke="#000000" points="1851.439,-252 1742.561,-252 1742.561,-216 1851.439,-216 1851.439,-252"/>
<text text-anchor="middle" x="1797" y="-229.8" font-family="Times,serif" font-size="14.00" fill="#000000">AppComponent </text>
</g>
<!-- AppModule&#45;&gt;AppComponent  -->
<g id="edge22" class="edge">
<title>AppModule&#45;&gt;AppComponent </title>
<path fill="none" stroke="#000000" stroke-dasharray="1,5" d="M1797,-187.1061C1797,-187.1061 1797,-205.991 1797,-205.991"/>
<polygon fill="#000000" stroke="#000000" points="1793.5001,-205.9909 1797,-215.991 1800.5001,-205.991 1793.5001,-205.9909"/>
</g>
<!-- BrowserModule -->
<g id="node16" class="node">
<title>BrowserModule</title>
<polygon fill="#8dd3c7" stroke="#000000" points="1573.4734,-122 1570.4734,-126 1549.4734,-126 1546.4734,-122 1466.5266,-122 1466.5266,-86 1573.4734,-86 1573.4734,-122"/>
<text text-anchor="middle" x="1520" y="-99.8" font-family="Times,serif" font-size="14.00" fill="#000000">BrowserModule</text>
</g>
<!-- BrowserModule&#45;&gt;AppModule -->
<g id="edge15" class="edge">
<title>BrowserModule&#45;&gt;AppModule</title>
<path fill="none" stroke="#000000" d="M1520,-122.2396C1520,-137.5706 1520,-157 1520,-157 1520,-157 1745.2304,-157 1745.2304,-157"/>
<polygon fill="#000000" stroke="#000000" points="1745.2304,-160.5001 1755.2304,-157 1745.2304,-153.5001 1745.2304,-160.5001"/>
</g>
<!-- FormsModule -->
<g id="node17" class="node">
<title>FormsModule</title>
<polygon fill="#8dd3c7" stroke="#000000" points="1448.8288,-122 1445.8288,-126 1424.8288,-126 1421.8288,-122 1353.1712,-122 1353.1712,-86 1448.8288,-86 1448.8288,-122"/>
<text text-anchor="middle" x="1401" y="-99.8" font-family="Times,serif" font-size="14.00" fill="#000000">FormsModule</text>
</g>
<!-- FormsModule&#45;&gt;AppModule -->
<g id="edge16" class="edge">
<title>FormsModule&#45;&gt;AppModule</title>
<path fill="none" stroke="#000000" d="M1401,-122.027C1401,-138.3976 1401,-160 1401,-160 1401,-160 1744.996,-160 1744.996,-160"/>
<polygon fill="#000000" stroke="#000000" points="1744.996,-163.5001 1754.996,-160 1744.9959,-156.5001 1744.996,-163.5001"/>
</g>
<!-- HttpModule -->
<g id="node18" class="node">
<title>HttpModule</title>
<polygon fill="#8dd3c7" stroke="#000000" points="1335.4387,-122 1332.4387,-126 1311.4387,-126 1308.4387,-122 1250.5613,-122 1250.5613,-86 1335.4387,-86 1335.4387,-122"/>
<text text-anchor="middle" x="1293" y="-99.8" font-family="Times,serif" font-size="14.00" fill="#000000">HttpModule</text>
</g>
<!-- HttpModule&#45;&gt;AppModule -->
<g id="edge17" class="edge">
<title>HttpModule&#45;&gt;AppModule</title>
<path fill="none" stroke="#000000" d="M1293,-122.0225C1293,-139.3734 1293,-163 1293,-163 1293,-163 1745.3268,-163 1745.3268,-163"/>
<polygon fill="#000000" stroke="#000000" points="1745.3268,-166.5001 1755.3268,-163 1745.3267,-159.5001 1745.3268,-166.5001"/>
</g>
<!-- MaterialModule -->
<g id="node19" class="node">
<title>MaterialModule</title>
<polygon fill="#8dd3c7" stroke="#000000" points="1232.4706,-122 1229.4706,-126 1208.4706,-126 1205.4706,-122 1125.5294,-122 1125.5294,-86 1232.4706,-86 1232.4706,-122"/>
<text text-anchor="middle" x="1179" y="-99.8" font-family="Times,serif" font-size="14.00" fill="#000000">MaterialModule</text>
</g>
<!-- MaterialModule&#45;&gt;AppModule -->
<g id="edge18" class="edge">
<title>MaterialModule&#45;&gt;AppModule</title>
<path fill="none" stroke="#000000" d="M1179,-122.302C1179,-140.2699 1179,-165 1179,-165 1179,-165 1745.0082,-165 1745.0082,-165"/>
<polygon fill="#000000" stroke="#000000" points="1745.0082,-168.5001 1755.0082,-165 1745.0082,-161.5001 1745.0082,-168.5001"/>
</g>
<!-- BrowserAnimationsModule -->
<g id="node20" class="node">
<title>BrowserAnimationsModule</title>
<polygon fill="#8dd3c7" stroke="#000000" points="1107.3019,-122 1104.3019,-126 1083.3019,-126 1080.3019,-122 934.6981,-122 934.6981,-86 1107.3019,-86 1107.3019,-122"/>
<text text-anchor="middle" x="1021" y="-99.8" font-family="Times,serif" font-size="14.00" fill="#000000">BrowserAnimationsModule</text>
</g>
<!-- BrowserAnimationsModule&#45;&gt;AppModule -->
<g id="edge19" class="edge">
<title>BrowserAnimationsModule&#45;&gt;AppModule</title>
<path fill="none" stroke="#000000" d="M1021,-122.1686C1021,-141.0898 1021,-168 1021,-168 1021,-168 1745.2789,-168 1745.2789,-168"/>
<polygon fill="#000000" stroke="#000000" points="1745.2789,-171.5001 1755.2789,-168 1745.2788,-164.5001 1745.2789,-171.5001"/>
</g>
<!-- AppRoutingModule -->
<g id="node21" class="node">
<title>AppRoutingModule</title>
<polygon fill="#8dd3c7" stroke="#000000" points="916.2744,-122 913.2744,-126 892.2744,-126 889.2744,-122 787.7256,-122 787.7256,-86 916.2744,-86 916.2744,-122"/>
<text text-anchor="middle" x="852" y="-99.8" font-family="Times,serif" font-size="14.00" fill="#000000">AppRoutingModule</text>
</g>
<!-- AppRoutingModule&#45;&gt;AppModule -->
<g id="edge20" class="edge">
<title>AppRoutingModule&#45;&gt;AppModule</title>
<path fill="none" stroke="#000000" d="M852,-122.308C852,-142.1455 852,-171 852,-171 852,-171 1745.1752,-171 1745.1752,-171"/>
<polygon fill="#000000" stroke="#000000" points="1745.1752,-174.5001 1755.1752,-171 1745.1752,-167.5001 1745.1752,-174.5001"/>
</g>
<!-- InfiniteScrollModule -->
<g id="node22" class="node">
<title>InfiniteScrollModule</title>
<polygon fill="#8dd3c7" stroke="#000000" points="770.1965,-122 767.1965,-126 746.1965,-126 743.1965,-122 635.8035,-122 635.8035,-86 770.1965,-86 770.1965,-122"/>
<text text-anchor="middle" x="703" y="-99.8" font-family="Times,serif" font-size="14.00" fill="#000000">InfiniteScrollModule</text>
</g>
<!-- InfiniteScrollModule&#45;&gt;AppModule -->
<g id="edge21" class="edge">
<title>InfiniteScrollModule&#45;&gt;AppModule</title>
<path fill="none" stroke="#000000" d="M703,-122.0267C703,-142.7672 703,-174 703,-174 703,-174 1745.1176,-174 1745.1176,-174"/>
<polygon fill="#000000" stroke="#000000" points="1745.1176,-177.5001 1755.1176,-174 1745.1176,-170.5001 1745.1176,-177.5001"/>
</g>
<!-- AuthGuard -->
<g id="node24" class="node">
<title>AuthGuard</title>
<ellipse fill="#fdb462" stroke="#000000" cx="558" cy="-104" rx="54.4566" ry="18"/>
<text text-anchor="middle" x="558" y="-99.8" font-family="Times,serif" font-size="14.00" fill="#000000">AuthGuard</text>
</g>
<!-- AuthGuard&#45;&gt;AppModule -->
<g id="edge23" class="edge">
<title>AuthGuard&#45;&gt;AppModule</title>
<path fill="none" stroke="#000000" d="M558,-122.1686C558,-143.498 558,-176 558,-176 558,-176 1745.0663,-176 1745.0663,-176"/>
<polygon fill="#000000" stroke="#000000" points="1745.0663,-179.5001 1755.0663,-176 1745.0663,-172.5001 1745.0663,-179.5001"/>
</g>
<!-- AuthenticationService -->
<g id="node25" class="node">
<title>AuthenticationService</title>
<ellipse fill="#fdb462" stroke="#000000" cx="388" cy="-104" rx="97.2683" ry="18"/>
<text text-anchor="middle" x="388" y="-99.8" font-family="Times,serif" font-size="14.00" fill="#000000">AuthenticationService</text>
</g>
<!-- AuthenticationService&#45;&gt;AppModule -->
<g id="edge24" class="edge">
<title>AuthenticationService&#45;&gt;AppModule</title>
<path fill="none" stroke="#000000" d="M388,-122.1554C388,-144.3519 388,-179 388,-179 388,-179 1745.2137,-179 1745.2137,-179"/>
<polygon fill="#000000" stroke="#000000" points="1745.2137,-182.5001 1755.2137,-179 1745.2137,-175.5001 1745.2137,-182.5001"/>
</g>
<!-- RestService -->
<g id="node26" class="node">
<title>RestService</title>
<ellipse fill="#fdb462" stroke="#000000" cx="215" cy="-104" rx="57.3166" ry="18"/>
<text text-anchor="middle" x="215" y="-99.8" font-family="Times,serif" font-size="14.00" fill="#000000">RestService</text>
</g>
<!-- RestService&#45;&gt;AppModule -->
<g id="edge25" class="edge">
<title>RestService&#45;&gt;AppModule</title>
<path fill="none" stroke="#000000" d="M215,-122.0908C215,-145.1328 215,-182 215,-182 215,-182 1745.0928,-182 1745.0928,-182"/>
<polygon fill="#000000" stroke="#000000" points="1745.0929,-185.5001 1755.0928,-182 1745.0928,-178.5001 1745.0929,-185.5001"/>
</g>
<!-- UserService -->
<g id="node27" class="node">
<title>UserService</title>
<ellipse fill="#fdb462" stroke="#000000" cx="82" cy="-104" rx="58.4415" ry="18"/>
<text text-anchor="middle" x="82" y="-99.8" font-family="Times,serif" font-size="14.00" fill="#000000">UserService</text>
</g>
<!-- UserService&#45;&gt;AppModule -->
<g id="edge26" class="edge">
<title>UserService&#45;&gt;AppModule</title>
<path fill="none" stroke="#000000" d="M82,-122.3802C82,-146.2785 82,-185 82,-185 82,-185 1745.0324,-185 1745.0324,-185"/>
<polygon fill="#000000" stroke="#000000" points="1745.0324,-188.5001 1755.0324,-185 1745.0324,-181.5001 1745.0324,-188.5001"/>
</g>
</g>
</svg>
